<?xml version="1.0" encoding="UTF-8"?>
<svg width="51px" height="51px" viewBox="0 0 51 51" version="1.1" xmlns="http://www.w3.org/2000/svg" xmlns:xlink="http://www.w3.org/1999/xlink">
    <!-- Generator: Sketch 63.1 (92452) - https://sketch.com -->
    <title>workflow</title>
    <desc>Created with Sketch.</desc>
    <defs>
        <linearGradient x1="100%" y1="111.657943%" x2="-31.6646847%" y2="-13.7341674%" id="linearGradient-1">
            <stop stop-color="#7CBBFF" offset="0%"></stop>
            <stop stop-color="#298BFC" offset="100%"></stop>
        </linearGradient>
        <linearGradient x1="50%" y1="0%" x2="50%" y2="100%" id="linearGradient-2">
            <stop stop-color="#6A6DED" offset="0%"></stop>
            <stop stop-color="#A3A6F7" offset="100%"></stop>
        </linearGradient>
        <linearGradient x1="119.847683%" y1="50%" x2="0%" y2="50%" id="linearGradient-3">
            <stop stop-color="#17BDC5" offset="0%"></stop>
            <stop stop-color="#2FDEE3" offset="100%"></stop>
        </linearGradient>
        <linearGradient x1="50%" y1="0%" x2="50%" y2="100%" id="linearGradient-4">
            <stop stop-color="#E49EE7" offset="0%"></stop>
            <stop stop-color="#C465CA" offset="100%"></stop>
        </linearGradient>
    </defs>
    <g id="Page-1" stroke="none" stroke-width="1" fill="none" fill-rule="evenodd">
        <g id="2020_Prophecy---Home_frame3" transform="translate(-576.000000, -3895.000000)" fill-rule="nonzero">
            <g id="workflow" transform="translate(576.000000, 3895.000000)">
                <path d="M2.73684211,32.8421053 C1.22610526,32.8421053 0,34.0682105 0,35.5789474 L0,46.5263158 C0,48.0370526 1.22610526,49.2631579 2.73684211,49.2631579 L13.6842105,49.2631579 C15.1949474,49.2631579 16.4210526,48.0370526 16.4210526,46.5263158 L16.4210526,35.5789474 C16.4210526,34.0682105 15.1949474,32.8421053 13.6842105,32.8421053 L2.73684211,32.8421053 Z" id="Shape" fill="url(#linearGradient-1)"></path>
                <path d="M8.21052632,-8.01230427e-13 C12.7126579,-8.01230427e-13 16.4210526,3.70839478 16.4210526,8.21052632 C16.4210526,11.7496972 14.1147979,14.7656499 10.9473684,15.9078947 L10.9473684,15.9078947 L10.9473684,24.6315789 C10.9613271,25.6185825 10.4427623,26.5366437 9.59024273,27.034219 C8.73772311,27.5317943 7.68332952,27.5317943 6.8308099,27.034219 C5.97829028,26.5366437 5.45972552,25.6185825 5.47368421,24.6315789 L5.47368421,24.6315789 L5.47368421,15.9078947 C2.30625474,14.7656499 0,11.7496972 0,8.21052632 C0,3.70839478 3.70839478,-8.01230427e-13 8.21052632,-8.01230427e-13 Z M8.21052632,5.47368421 C6.66659322,5.47368421 5.47368421,6.66659322 5.47368421,8.21052632 C5.47368421,9.69706126 6.58987926,10.8310171 8.05016434,10.9152959 C8.08932109,10.9126713 8.12852976,10.9108891 8.16776316,10.9099506 C8.23373255,10.9093483 8.29970214,10.9111312 8.36554269,10.9152959 C9.82851589,10.8335861 10.9473684,9.69890343 10.9473684,8.21052632 C10.9473684,6.66659322 9.75445941,5.47368421 8.21052632,5.47368421 Z" id="Combined-Shape" fill="url(#linearGradient-2)"></path>
                <path d="M41.0526316,0 C37.5773778,0.00487598129 34.4816057,2.19717911 33.3231901,5.47368421 L24.6315789,5.47368421 C23.6445754,5.45972552 22.7265142,5.97829028 22.2289389,6.8308099 C21.7313636,7.68332952 21.7313636,8.73772311 22.2289389,9.59024273 C22.7265142,10.4427623 23.6445754,10.9613271 24.6315789,10.9473684 L33.3178451,10.9473684 C34.4769164,14.2257204 37.5754155,16.4184384 41.0526316,16.4210526 C45.5871801,16.4210526 49.2631579,12.7450748 49.2631579,8.21052632 C49.2631579,3.67597784 45.5871801,0 41.0526316,0 Z" id="Path" fill="url(#linearGradient-3)"></path>
                <path d="M41.0098684,21.8573187 C39.5004557,21.8809133 38.2951189,23.1221233 38.3157895,24.6315789 L38.3157895,32.8421053 L32.0402954,39.1175994 C30.9729269,40.1849678 30.9729269,41.9202954 32.0402954,42.9876638 L39.1175994,50.0649678 C40.1849678,51.1350731 41.9175585,51.1350731 42.9876638,50.0649678 L50.0649678,42.9876638 C51.1350731,41.9202954 51.1350731,40.1877046 50.0649678,39.1175994 L43.7894737,32.8421053 L43.7894737,24.6315789 C43.799604,23.8918096 43.5098323,23.1794471 42.9861841,22.6568058 C42.4625359,22.1341646 41.7496169,21.8457645 41.0098684,21.8573187 Z" id="Path" fill="url(#linearGradient-4)"></path>
            </g>
        </g>
    </g>
</svg>